<?xml version="1.0" encoding="utf-8"?>
<!-- Generator: Adobe Illustrator 18.1.1, SVG Export Plug-In . SVG Version: 6.00 Build 0)  -->
<svg version="1.1" id="Ebene_1" xmlns="http://www.w3.org/2000/svg" xmlns:xlink="http://www.w3.org/1999/xlink" x="0px" y="0px"
	 viewBox="0 0 215.4 212" enable-background="new 0 0 215.4 212" xml:space="preserve">
<path fill="#FFFFFF" d="M151.9,21.4c-6.3-0.4-12.7-1.2-18.9-0.2c-15.4,2.4-30.7,5.5-46,8.6c-3.2,0.6-5.1,0.6-7.5-2.3
	C69,14.2,54.9,6.9,38,5.4c-11.1-1-21.7,0.9-31.7,6.1c2.8,5.5,5.4,10.6,7.9,15.6c21.1-7.9,41.3-3.2,51.7,12.1
	c-8.1,7.3-16.2,14.1-23.9,21.5C32.9,69.4,24.1,78.5,18.3,90c-3,5.9-3.3,11.6,0.5,17.5c6.2,9.7,14.7,16.3,25.9,18.9
	c3.3,0.8,5.1,2.4,6.5,5.3c5.4,10.9,10.9,21.8,16.5,32.5c11.9,22.7,30.6,37,55.1,43.4c27,7.1,50.7-3.9,62.3-29.3
	c10.5-23.1,10.7-46.8,0.2-70.1c-5.5-12.3-12.2-24.1-18.1-36.2c-1-2-1.1-5.2-0.3-7.3c3.7-9.7,4.1-19.4,1.1-29.3
	C165.7,27.2,160.7,21.9,151.9,21.4z M183.1,132.9c-2.5,2.7-5,5.4-7.5,8.2c-0.3,0.4-0.6,0.4-1,0.1c-3.3-3.1-6.7-6.1-10-9.2
	c0,0-0.1-0.1-0.1-0.1c-0.2,2-0.3,4.1-0.6,6.1c-0.8,5-2.5,9.7-5,14c-3.2,5.5-7.5,10-12.9,13.5c-4,2.6-8.3,4.4-13,5.5
	c-8.5,2-16.9,1.4-25-2c-5-2.1-9.4-5.1-13.1-9.1c-3.4-3.6-6-7.7-7.8-12.3c-1.8-4.8-2.7-9.7-2.5-14.9c0.2-6.5,1.9-12.5,5-18.2
	c2.5-4.6,5.8-8.5,9.9-11.9c3.4-2.8,7.2-4.9,11.3-6.5c2.7-1.1,5.5-1.8,8.5-2.2c4.2-0.5,8.3,0,12.4,1c3.4,0.9,6.6,2.2,9.7,3.7
	c0.4,0.2,0.4,0.3,0.2,0.6c-1.9,3-3.8,6-5.7,9c-0.3,0.5-0.6,0.9-0.9,1.4c-0.2,0.3-0.3,0.4-0.7,0.2c-2.3-1.2-4.7-2-7.2-2.4
	c-3.5-0.5-6.9-0.3-10.3,0.6c-3.7,1-6.9,2.8-9.8,5.3c-4.3,3.8-7,8.5-8.1,14.1c-1,4.9-0.5,9.7,1.3,14.4c1.3,3.5,3.2,6.6,5.8,9.2
	c3.7,3.8,8.2,6.2,13.4,7.1c4.8,0.9,9.4,0.4,13.9-1.3c5.5-2,9.9-5.5,13.1-10.5c3.4-5.3,4.7-11,3.7-17.3c0-0.1,0-0.1-0.1-0.2
	c-0.7,0.6-1.4,1.1-2.1,1.7c-3.9,3.1-7.8,6.3-11.7,9.4c-0.5,0.4-0.6,0.4-1-0.2c-2.2-3.2-4.4-6.3-6.6-9.5c-0.3-0.4-0.2-0.7,0.2-0.9
	c3.5-2.6,7.1-5.2,10.6-7.8c2.7-2,5.4-4,8.2-6c3-2.2,5.9-4.4,8.9-6.6c0.8-0.6,0.8-0.6,1.6,0.1c4.2,3.9,8.5,7.7,12.7,11.6
	c3.6,3.3,7.1,6.5,10.7,9.8c0.5,0.5,1.1,1,1.6,1.5C183.4,132.5,183.4,132.7,183.1,132.9z"/>
<g>
</g>
<g>
</g>
<g>
</g>
<g>
</g>
<g>
</g>
<g>
</g>
</svg>
