<?xml version="1.0" encoding="utf-8"?>
<!-- Generator: Adobe Illustrator 18.1.1, SVG Export Plug-In . SVG Version: 6.00 Build 0)  -->
<svg version="1.1" id="Ebene_1" xmlns="http://www.w3.org/2000/svg" xmlns:xlink="http://www.w3.org/1999/xlink" x="0px" y="0px"
 viewBox="0 0 283.5 283.5" enable-background="new 0 0 283.5 283.5" xml:space="preserve">
<circle fill="none" stroke="#727272" stroke-width="9" stroke-miterlimit="10" cx="141.7" cy="141.7" r="135.8"/>
<g>
<g>
    <path fill="#727272" d="M141.6,106.5c11-0.1,22,0,33.3,0c-0.2-0.6-0.3-0.9-0.4-1.2c-2.8-7.7-5.9-15.4-8.4-23.2
        c-2.4-7.5-10.4-11.9-19-8.7c-16.6,6.2-33.4,12.1-50.1,18.2c-11.1,4-22.3,7.9-33.4,12.2c-6.8,2.6-10,9.8-7.6,16.5
        c5.9,16.3,11.8,32.6,17.9,48.8c2.6,6.9,9.8,10.1,16.9,7.8c4.8-1.6,9.5-3.4,14.3-5.1c1.1-0.4,1.4-0.9,1.4-2c-0.1-6,0-11.9,0-17.9
        c0-0.3-0.1-0.6-0.2-1.2c-0.8,0.3-1.5,0.5-2.2,0.7c-4.8,1.7-9.6,3.5-14.5,5.2c-2.3,0.8-4,0.2-4.7-1.7c-0.8-1.9,0.2-3.6,2.5-4.5
        c0.5-0.2,1-0.4,1.5-0.6c5.3-1.9,10.5-3.8,15.8-5.6c1.4-0.5,1.8-1.2,1.8-2.6c0-5.6-0.1-11.3,0.2-16.9c0.5-8.7,8.2-16.9,16.9-17.8
        C129.5,106.3,135.6,106.5,141.6,106.5z M94.8,134.5c-3.4,1.4-6.8,2.6-10.2,3.7c-2.8,0.9-5.5-0.5-6.6-3.2c-0.9-2.3-1.7-4.6-2.5-7
        c-0.7-2.2-0.2-4.6,1.7-5.5c4.2-2.1,8.6-3.6,13-5.3c2.6,0.4,4.3,1.5,5.2,3.7c0.9,2.2,1.7,4.5,2.5,6.8
        C98.8,130.6,97.7,133.3,94.8,134.5z M230.4,127.4c0-8.2-5.9-13.6-14.1-13.6c-29.4,0-58.9,0-88.3,0c-8.3,0-14.2,5.7-14.2,14
        c0,16.7,0,33.5,0,50.2c0,8.1,5.7,13.8,13.9,13.8c14.8,0.1,29.6,0,44.3,0c14.9,0,29.8,0,44.8,0c7.7,0,13.6-5.6,13.6-13.2
        C230.5,161.5,230.5,144.5,230.4,127.4z M221.3,177.4c0,4-1.4,5.3-5.3,5.3c-25.5,0-51,0-76.5,0c-3.9,0-7.8,0.1-11.7,0
        c-2.9,0-4.6-1.6-4.6-4.5c-0.1-9.1,0-18.2,0-27.3c0-0.4,0.1-0.8,0.2-1.3h98.1v9.7C221.3,165.3,221.3,171.3,221.3,177.4z M221.3,133
        h-98.2c0-2.1-0.1-4,0-5.9c0.2-2.8,1.9-4.2,5.1-4.2c14.9,0,29.8,0,44.7,0c14.4,0,28.7,0,43.1,0c3.6,0,5.2,1.5,5.3,5
        C221.3,129.6,221.3,131.3,221.3,133z M180.9,158c-15.2,0-30.4,0-45.5,0c-2.2,0-3.7,1.3-3.8,3.1c0,1.9,1.5,3.3,3.8,3.3
        c7.6,0,15.2,0,22.9,0v0c7.6,0,15.1,0,22.7,0c2.6,0,4-1.1,4-3.2C185,159.2,183.5,158,180.9,158z"/>
</g>
</g>
</svg>
