<?xml version="1.0" encoding="utf-8"?>
<!-- Generator: Adobe Illustrator 18.1.1, SVG Export Plug-In . SVG Version: 6.00 Build 0)  -->
<svg version="1.1" id="Ebene_1" xmlns="http://www.w3.org/2000/svg" xmlns:xlink="http://www.w3.org/1999/xlink" x="0px" y="0px"
	 viewBox="0 0 283.5 283.5" enable-background="new 0 0 283.5 283.5" xml:space="preserve">
<circle fill="none" stroke="#727272" stroke-width="9" stroke-miterlimit="10" cx="141.7" cy="141.7" r="135.8"/>
<path id="world" fill="#727272" d="M141.6,54.3c-48.8,0-88.3,39.5-88.3,88.3s39.5,88.3,88.3,88.3s88.3-39.5,88.3-88.3
	S190.4,54.3,141.6,54.3z M218.4,139.7h-34.2c-0.3-12.6-2.6-24.7-6.5-35.7c7.7-3.2,14.8-7.5,21.3-12.5
	C210.5,104.4,217.7,121.2,218.4,139.7z M138.5,219.3c-9.5-7.9-17.4-18.1-23.2-30c7.5-2.3,15.4-3.6,23.5-3.9v33.9
	C138.7,219.3,138.6,219.3,138.5,219.3z M144.7,65.8c10.7,8.9,19.5,20.9,25.4,34.9c-8.1,2.8-16.8,4.4-25.7,4.7V65.8
	C144.6,65.8,144.7,65.8,144.7,65.8z M154.2,66.8c15.7,2.6,29.8,10,40.8,20.6c-6,4.6-12.5,8.4-19.5,11.4
	C170.3,86.5,163.1,75.6,154.2,66.8z M138.8,65.8v39.6c-9-0.3-17.6-1.9-25.7-4.7c5.9-14,14.7-26,25.4-34.9
	C138.6,65.8,138.7,65.8,138.8,65.8z M107.7,98.7c-7-2.9-13.6-6.8-19.5-11.4c11-10.6,25.1-18,40.8-20.6
	C120.2,75.6,112.9,86.5,107.7,98.7z M110.9,106c8.8,3,18.1,4.8,27.9,5.1v28.6h-34.1C105,127.8,107.1,116.4,110.9,106z M138.8,145.4
	v34.3c-9,0.3-17.7,1.7-25.9,4.4c-4.9-11.7-7.8-24.8-8.2-38.7H138.8z M129,218.3c-14.1-2.3-26.9-8.5-37.3-17.4
	c5.6-3.9,11.7-7.2,18.2-9.7C114.8,201.5,121.3,210.7,129,218.3z M144.5,219.3v-33.9c8.2,0.3,16.1,1.5,23.5,3.9
	c-5.8,11.9-13.7,22.1-23.2,30C144.7,219.3,144.6,219.3,144.5,219.3z M173.4,191.2c6.5,2.5,12.5,5.8,18.2,9.7
	c-10.4,8.9-23.2,15-37.3,17.4C161.9,210.7,168.4,201.5,173.4,191.2z M170.3,184.1c-8.2-2.6-16.9-4.1-25.9-4.4v-34.3h34.1
	C178.2,159.3,175.2,172.3,170.3,184.1z M144.5,139.7v-28.6c9.7-0.3,19.1-2.1,27.9-5.1c3.7,10.4,5.9,21.8,6.2,33.7L144.5,139.7
	L144.5,139.7z M84.3,91.5c6.5,5,13.6,9.3,21.3,12.5c-4,11-6.2,23.1-6.5,35.7H64.9C65.5,121.2,72.7,104.4,84.3,91.5z M64.9,145.4H99
	c0.4,14.6,3.4,28.3,8.6,40.7c-7.2,2.8-13.9,6.6-20.2,11C74,183.7,65.6,165.5,64.9,145.4z M195.8,197c-6.2-4.4-12.9-8.2-20.2-11
	c5.2-12.4,8.2-26.1,8.6-40.7h34.2C217.6,165.5,209.2,183.7,195.8,197z"/>
</svg>
