<?xml version="1.0" encoding="utf-8"?>
<!-- Generator: Adobe Illustrator 18.1.1, SVG Export Plug-In . SVG Version: 6.00 Build 0)  -->
<svg version="1.1" id="Ebene_1" xmlns="http://www.w3.org/2000/svg" xmlns:xlink="http://www.w3.org/1999/xlink" x="0px" y="0px"
	 viewBox="0 0 283.5 283.5" enable-background="new 0 0 283.5 283.5" xml:space="preserve">
<circle fill="none" stroke="#727272" stroke-width="9" stroke-miterlimit="10" cx="141.7" cy="141.7" r="135.8"/>
<g>
	<g>
		<path fill="#727272" d="M174.8,152.2c0-5.8-1-11.4-4-16.4c-1.5-2.6-3.3-5.1-5.2-7.4c-4.7-6-7.1-12.7-6.7-20.3
			c0.2-3.7,0.5-7.3,0.9-11c0.7-6.3,0.3-12.4-0.7-18.6c-1.2-7.2-2.2-14.5-3.4-22.1c-1.5,0.1-2.9,0.3-4.2,0.3c-1.9,0-3.9,0-5.8,0
			c-1.9,0-3.7,0-5.6,0c-1.6,0-3.2,0.2-4.9,0.2c-1,0-1.9-0.5-2.9-0.6c-1.4-0.1-2.4,0.1-2.6,2c-0.7,5.8-1.6,11.6-2.5,17.3
			c-1.3,7.7-2,15.3-1,23.1c0.5,4.2,0.7,8.4,0.6,12.6c-0.1,7.5-3.7,13.7-8.3,19.3c-5.4,6.6-7.6,14.1-7.6,22.5c0,24.2,0,48.5,0,72.7
			c0,1.3,0.1,2.6,0.3,3.9c0.7,4.5,3.6,6.9,8.6,7c15,0,29.9,0,44.9,0c7,0,9.8-2.7,10.1-9.7c0-0.5,0-0.9,0-1.4
			C174.8,201.1,174.8,176.6,174.8,152.2z M124,228.2c-3.1,0.3-4.5-0.8-4.5-4c-0.1-6.3-0.1-12.6-0.1-18.9c0-18,0-36,0.1-54
			c0-5,1.7-9.7,3.9-14.1c0.1-0.2,0.3-0.4,0.6-0.8V228.2z M168.4,225.6c0,4.6-0.3,4.8-4.8,4.7c-0.5,0-0.9,0-1.7-0.1
			c0-1.5,0-2.9,0-4.3c0-23.5,0-46.9,0.1-70.4c0-7.3-1.2-13.9-5.8-19.8c-6.4-8.1-8.6-17.5-8.3-27.5c0.2-6.5,0.6-13,1.1-19.5
			c0.6-8.2-0.9-16.2-2.1-24.3c-0.1-0.4-0.1-0.8-0.2-1.4c1.3,0.2,2.3,0.3,3.4,0.4c0.8,5.2,1.5,10.5,2.6,15.7
			c1.7,8.2,0.7,16.3-0.1,24.5c-1,10,1.1,19.2,7.2,27.5c2.8,3.7,5.3,7.7,7.2,11.9c1.2,2.7,1.4,6,1.4,9.1
			C168.5,176.7,168.4,201.1,168.4,225.6z M129.9,54.4c1.6-0.2,3.2,0.1,4.8,0.1c1.8,0,3.6-0.1,5.4-0.1c1.7,0,3.5-0.1,5.2,0
			c1.6,0.1,3.1,0.4,4.7,0.4c2.1-0.1,4.1-0.4,6.2-0.7c2.2,0.4,3.1-0.6,2.8-2.7c-0.1-0.9-0.4-1.8-0.6-2.7c-0.5-1.8-1.6-2.6-3.4-2.6
			c-8,0-16.1,0-24.1,0c-1.8,0-2.8,0.8-3.4,2.5c-0.3,0.9-0.5,1.8-0.7,2.7C126.3,53.5,127.6,54.7,129.9,54.4z"/>
	</g>
</g>
</svg>
