<?xml version="1.0" encoding="utf-8"?>
<!-- Generator: Adobe Illustrator 18.1.1, SVG Export Plug-In . SVG Version: 6.00 Build 0)  -->
<svg version="1.1" id="Ebene_1" xmlns="http://www.w3.org/2000/svg" xmlns:xlink="http://www.w3.org/1999/xlink" x="0px" y="0px"
	 viewBox="0 0 283.5 283.5" enable-background="new 0 0 283.5 283.5" xml:space="preserve">
<circle fill="none" stroke="#727272" stroke-width="9" stroke-miterlimit="10" cx="141.7" cy="141.7" r="135.8"/>
<g>
	<g>
		<path fill="#727272" d="M215.7,103.1c0.1-2.9-0.8-3.9-3.8-3.9c-12.2,0.1-24.4,0.1-36.6,0.1h-4c0.2-1.1,0.2-1.4,0.3-1.5
			c0.6-0.7,1.3-1.3,2-2c4.9-4.8,8.7-10.2,10.6-16.9c3.3-11.8-4.3-19.9-16.1-17.3c-9.3,2.1-16.1,7.9-21.8,15.2
			c-0.9,1.1-1.8,2.3-3,3.7c-1.3-1.7-2.1-2.9-3.1-4.1c-6-7.5-13.1-13.1-22.7-15.1c-9-1.8-15.7,3.7-15.5,12.9
			c0.2,8.2,4.5,14.5,9.8,20.2c1.2,1.3,2.5,2.6,4.5,4.7c-2.3,0.1-3.5,0.3-4.7,0.3c-12.3,0-24.7,0-37,0c-2.1,0-3.6,0.1-3.6,2.9
			c0.1,7.1,0.1,14.2,0,21.3c0,2.2,0.8,2.9,2.9,2.9c17.6,0,35.2,0,52.9,0c2.1,0,2.9-0.8,2.9-2.9c-0.1-4.7,0.1-9.5-0.1-14.2
			c-0.1-2.5,0.6-3.9,3.4-3.5c2.4,0.4,5.8-1.3,5.6,3.4c-0.2,4.5,0.1,9-0.1,13.5c-0.1,2.8,0.8,4,3.6,3.7c0.9-0.1,1.9-0.1,2.8,0
			c2.3,0.2,3.1-0.9,3.1-3.1c-0.1-3.9,0-7.8,0-11.7c0-5.8,0-5.7,5.8-5.8c2.6,0,3.3,1,3.2,3.3c-0.1,4.6,0.1,9.2-0.1,13.8
			c-0.1,2.6,0.8,3.5,3.4,3.5c17.3-0.1,34.5-0.1,51.8,0c2.6,0,3.5-0.8,3.5-3.4C215.6,116.3,215.5,109.7,215.7,103.1z M134,98.6
			c-0.9,0-1.9,0-2.8-0.3c-10.8-3.7-18.3-10.9-21.7-21.9c-1.8-5.9,1.6-9.3,7.6-7.6c10.8,3.1,17.9,10.3,21.8,20.8
			c0.2,0.4,0.3,0.9,0.4,1.4c0.1,0.7,0.1,1.4,0.1,1.7C139.4,97.2,138.1,98.6,134,98.6z M162.7,94.9c-2.9,1.8-6.4,3-9.8,3.5
			c-4.2,0.6-5.7-1.2-5.7-6.8c0.4-4.4,3.3-8.9,7-13c4.2-4.7,9.2-8.4,15.5-9.9c6-1.4,9.2,1.7,7.5,7.8
			C174.9,84.6,169.7,90.7,162.7,94.9z M126,135.3c-14.1,0.1-28.2,0.1-42.3,0c-2.8,0-3.6,1-3.6,3.7c0.1,12.2,0,24.4,0,36.5
			c0,12.4,0.1,24.8-0.1,37.2c0,2.8,0.9,3.7,3.7,3.6c14.1-0.1,28.2-0.1,42.3,0c2.9,0,3.6-1,3.6-3.7c-0.1-24.6-0.1-49.2,0-73.8
			C129.7,136.2,128.8,135.3,126,135.3z M206.5,175.9c0-12.2-0.1-24.4,0.1-36.5c0-3.1-0.8-4.1-4-4.1c-13.9,0.1-27.7,0.1-41.6,0
			c-3.1,0-4,0.9-4,4c0.1,24.4,0.1,48.7,0,73.1c0,3.1,0.8,4.1,4,4.1c13.9-0.2,27.7-0.2,41.6,0c3.1,0,4.1-0.9,4-4
			C206.4,200.3,206.5,188.1,206.5,175.9z M148.1,139.5c0-3.7-1.4-4.4-4.6-4.2c-2.9,0.1-5.1-0.1-5,4.1c0.3,12,0.1,24.1,0.1,36.2
			c0,12.2,0.2,24.3-0.1,36.5c-0.1,3.9,1.4,4.5,4.8,4.4c3.2,0,4.9-0.3,4.9-4.3C148,188,148,163.8,148.1,139.5z"/>
	</g>
</g>
</svg>
